<?xml version="1.0" standalone="no"?>
<!DOCTYPE svg PUBLIC "-//W3C//DTD SVG 20010904//EN"
 "http://www.w3.org/TR/2001/REC-SVG-20010904/DTD/svg10.dtd">
<svg version="1.0" xmlns="http://www.w3.org/2000/svg"
 width="1092.000000pt" height="1092.000000pt" viewBox="0 0 1092.000000 1092.000000"
 preserveAspectRatio="xMidYMid meet">
<metadata>
Created by potrace 1.14, written by Peter Selinger 2001-2017
</metadata>
<g transform="translate(0.000000,1092.000000) scale(0.100000,-0.100000)"
fill="#000000" stroke="none">
<path d="M8962 8251 c-46 -15 -87 -32 -90 -37 -4 -5 -19 -15 -34 -23 -34 -18
-144 -123 -183 -176 -17 -22 -33 -42 -36 -45 -29 -22 -180 -315 -249 -485 -75
-184 -163 -491 -217 -755 -18 -93 -34 -177 -35 -190 0 -8 -4 -35 -9 -60 -10
-53 -20 -115 -24 -150 -6 -53 -16 -136 -20 -160 -4 -24 -10 -95 -21 -230 -3
-36 -6 -105 -8 -154 -3 -99 -5 -101 -85 -111 -20 -2 -47 -6 -61 -9 -14 -4 -47
-9 -75 -11 -153 -17 -144 -19 -123 32 6 15 12 31 13 36 2 4 3 8 5 10 1 1 3 9
5 17 2 8 14 49 25 90 22 77 37 304 21 325 -4 5 -14 29 -21 53 -16 50 -73 113
-125 138 -40 19 -131 25 -185 12 -19 -5 -39 -10 -45 -11 -5 -2 -30 -13 -55
-25 -101 -49 -202 -174 -249 -307 -47 -135 -45 -300 5 -433 20 -53 21 -64 9
-68 -8 -4 -13 -10 -10 -14 3 -4 -2 -13 -10 -20 -8 -7 -15 -17 -15 -22 0 -5
-18 -36 -40 -69 -22 -33 -40 -65 -40 -70 0 -5 -4 -9 -10 -9 -5 0 -10 -5 -10
-10 0 -6 -22 -44 -50 -86 -27 -41 -50 -79 -50 -84 0 -5 -3 -10 -7 -12 -5 -1
-30 -36 -57 -76 -26 -40 -50 -72 -52 -70 -2 2 -6 56 -10 119 -3 62 -7 134 -9
159 -20 284 -23 352 -39 880 -3 127 -18 169 -74 204 -58 36 -153 41 -277 13
-37 -9 -79 -48 -103 -97 -27 -55 -27 -55 -26 -280 1 -211 8 -427 20 -603 5
-72 4 -78 -23 -108 -134 -156 -263 -282 -320 -316 -50 -29 -112 -38 -151 -20
-26 12 -58 59 -68 102 -13 52 -11 231 3 312 8 43 15 89 17 103 6 44 33 185 36
185 1 0 3 14 6 30 5 37 12 70 14 70 1 0 3 9 5 20 11 68 14 84 23 125 6 25 14
65 17 90 4 24 8 47 10 50 3 5 9 39 21 125 16 115 2 166 -56 198 -45 25 -61 28
-145 27 -199 -1 -245 -51 -320 -345 -19 -74 -37 -149 -40 -166 -3 -18 -8 -35
-10 -38 -2 -4 -6 -25 -9 -47 -4 -22 -9 -51 -11 -64 -3 -14 -8 -43 -11 -65 -7
-49 -25 -70 -86 -101 -82 -42 -155 -33 -181 21 -16 33 -17 142 -3 205 9 37 26
130 32 165 2 17 7 48 11 70 13 79 8 198 -11 236 -50 104 -157 147 -315 125
-77 -11 -223 -80 -302 -142 -39 -31 -162 -157 -189 -192 -14 -19 -30 -39 -35
-45 -49 -55 -157 -230 -199 -322 -11 -22 -31 -65 -45 -95 -15 -30 -33 -74 -40
-97 -8 -23 -18 -40 -23 -37 -4 3 -6 9 -4 13 5 7 12 55 21 143 4 37 24 139 50
258 1 8 19 81 39 162 56 225 63 268 45 309 -15 37 -54 51 -141 50 -80 -1 -101
-4 -138 -15 -86 -27 -142 -72 -178 -142 -33 -65 -103 -316 -116 -414 -3 -19
-5 -35 -6 -35 -2 0 -9 -36 -14 -80 -3 -22 -8 -52 -11 -67 -31 -157 -38 -678
-11 -804 2 -12 7 -39 11 -60 8 -45 13 -69 15 -69 1 0 3 -8 5 -18 7 -36 37 -88
73 -126 66 -69 184 -84 280 -34 46 23 61 38 87 86 27 49 67 168 81 242 2 11
25 85 50 165 131 408 351 771 458 754 38 -6 43 -33 31 -154 -24 -240 3 -345
116 -443 79 -69 157 -92 304 -91 115 1 147 7 275 50 13 4 16 -3 15 -38 -2
-130 58 -337 125 -428 54 -75 147 -138 225 -154 17 -4 41 -9 55 -11 33 -7 137
-7 175 0 163 30 321 124 491 292 24 24 45 39 47 35 4 -6 17 -51 22 -77 5 -20
50 -111 65 -129 56 -69 113 -104 195 -121 59 -12 174 -2 219 18 17 8 48 23 70
33 47 21 172 143 247 239 72 93 311 448 322 480 2 5 27 4 63 -4 32 -8 68 -15
79 -16 11 -2 44 -6 74 -10 70 -9 192 -9 261 0 30 4 64 8 75 10 11 1 34 5 52 9
31 7 31 7 43 -47 6 -29 13 -65 15 -80 3 -15 10 -39 16 -54 6 -16 10 -30 10
-33 -5 -33 95 -250 145 -316 44 -59 109 -124 124 -124 5 0 10 -4 10 -8 0 -11
74 -50 136 -72 83 -29 218 -39 319 -25 79 12 96 16 164 40 106 39 231 116 320
198 l40 37 22 -50 c12 -28 26 -50 31 -50 4 0 8 -6 8 -13 0 -16 52 -71 104
-109 106 -77 268 -77 390 0 93 58 213 203 248 298 6 19 15 34 18 34 4 0 7 6 8
13 0 6 12 41 26 77 l26 65 -6 -55 c-9 -83 -14 -123 -19 -150 -5 -24 -30 -179
-41 -247 -3 -18 -8 -33 -12 -33 -4 0 -19 -10 -34 -23 -15 -13 -39 -32 -54 -43
-34 -25 -275 -226 -334 -279 -73 -66 -263 -256 -309 -310 -73 -86 -177 -236
-226 -327 -25 -49 -44 -88 -40 -88 3 0 -1 -12 -8 -27 -44 -85 -71 -309 -51
-417 18 -99 82 -205 160 -265 161 -123 435 -122 608 1 23 16 52 36 65 46 38
26 109 105 161 180 45 64 149 249 154 275 4 15 22 61 42 104 9 17 17 37 18 45
2 7 8 27 15 43 6 17 15 41 20 55 5 14 12 34 17 45 4 11 8 25 9 30 2 6 17 53
33 105 28 87 84 291 96 350 3 14 17 75 31 135 14 61 28 125 31 144 3 18 8 42
10 52 10 45 12 56 19 99 4 25 9 54 11 65 3 11 7 36 10 55 3 19 7 42 9 50 3 8
7 35 10 60 3 25 7 56 10 70 7 32 12 63 20 123 4 27 8 59 11 70 2 12 6 40 9 62
5 35 17 106 29 170 2 11 7 40 10 65 3 25 8 56 11 70 2 14 7 41 9 60 3 19 8 46
10 60 3 14 10 54 16 90 5 36 12 76 15 90 3 14 7 41 10 60 3 19 7 46 10 60 2
14 7 41 10 60 3 19 8 42 10 50 2 8 6 38 10 65 3 28 8 57 10 65 2 8 7 38 10 65
4 28 9 61 11 75 13 82 15 170 4 190 -18 33 -75 52 -155 51 -38 0 -77 -2 -85
-4 -8 -3 -31 -8 -50 -12 -21 -5 -53 -27 -81 -55 -42 -42 -51 -59 -79 -151
-186 -613 -303 -879 -450 -1030 -54 -55 -62 -60 -96 -57 -48 4 -72 36 -80 108
-4 30 -7 60 -6 65 1 6 3 34 6 63 2 29 7 72 11 95 4 23 9 56 11 72 2 17 7 41 9
55 3 14 7 39 10 55 3 27 15 94 30 170 3 17 8 44 11 60 3 17 11 53 19 80 8 28
16 61 19 75 3 14 17 72 32 130 56 227 33 279 -124 281 -162 1 -245 -37 -304
-141 -22 -37 -82 -206 -93 -260 -2 -8 -11 -44 -20 -80 -9 -36 -19 -76 -21 -90
-2 -14 -7 -36 -11 -50 -11 -42 -10 -40 -29 -156 -12 -77 -31 -271 -33 -352 -1
-27 -184 -211 -248 -249 -79 -46 -144 -65 -233 -68 -96 -4 -143 12 -193 65
-48 51 -112 229 -86 238 5 2 9 9 9 14 0 6 17 34 38 62 39 51 240 354 277 417
96 164 175 307 175 318 0 6 5 11 10 11 6 0 10 9 10 19 0 11 3 21 8 23 6 2 73
131 77 148 1 3 16 37 34 75 58 122 131 299 131 317 0 9 3 18 8 20 12 5 114
331 137 438 2 8 8 35 13 60 11 46 21 102 28 155 2 17 6 48 9 70 10 69 12 336
3 389 -4 28 -10 69 -13 91 -15 105 -72 230 -140 310 -94 111 -244 142 -413 86z
m116 -387 c48 -33 66 -118 65 -309 -1 -153 -16 -293 -47 -430 -2 -11 -9 -42
-15 -70 -20 -88 -98 -342 -111 -360 -4 -5 -10 -23 -14 -40 -24 -100 -243 -565
-351 -746 -29 -47 -55 -94 -58 -103 -14 -35 -25 -13 -22 42 2 31 6 104 9 162
7 112 12 180 21 245 3 22 8 65 10 95 3 30 8 69 11 85 3 17 7 46 9 66 4 36 30
194 40 239 4 14 8 41 10 60 3 19 8 46 11 60 3 14 8 34 11 45 2 11 7 36 9 55 3
19 8 42 11 50 3 8 12 44 20 80 8 36 16 74 19 85 3 11 7 29 9 40 3 11 16 58 30
105 27 89 32 108 39 138 11 47 91 244 123 302 60 110 108 141 161 104z m1007
-3816 c-5 -18 -46 -179 -51 -203 -7 -34 -76 -268 -87 -295 -6 -14 -11 -27 -12
-30 -20 -81 -112 -270 -168 -347 -25 -33 -65 -74 -89 -90 -36 -25 -49 -28 -82
-22 -43 7 -79 42 -85 81 -14 92 12 259 43 280 6 4 8 8 4 8 -14 0 73 154 129
230 68 91 376 400 400 400 1 0 1 -6 -2 -12z"/>
<path d="M1358 7955 c-2 -1 -34 -5 -73 -9 -91 -9 -133 -13 -170 -20 -16 -3
-47 -8 -69 -11 -52 -9 -74 -13 -94 -19 -9 -3 -28 -7 -42 -10 -49 -8 -186 -46
-245 -66 -33 -12 -67 -23 -76 -25 -32 -7 -188 -75 -270 -118 -254 -133 -320
-213 -315 -382 4 -130 57 -199 151 -197 43 1 67 12 176 78 31 19 61 34 67 34
6 0 12 4 14 9 3 9 108 60 218 106 150 63 333 117 479 141 18 3 43 8 55 10 141
29 458 25 611 -7 28 -5 64 -13 80 -16 17 -3 35 -9 40 -13 6 -4 28 -13 50 -20
49 -16 176 -81 195 -100 3 -3 23 -18 44 -34 98 -73 212 -226 251 -336 1 -3 5
-14 9 -25 26 -69 33 -91 41 -140 2 -11 6 -33 10 -50 23 -109 23 -431 0 -555
-2 -14 -9 -52 -14 -85 -33 -195 -71 -316 -152 -479 -65 -130 -146 -244 -240
-336 -85 -84 -81 -80 -164 -136 -136 -92 -338 -167 -510 -189 -11 -2 -43 -6
-70 -10 -62 -9 -370 -13 -445 -6 -53 6 -55 7 -54 36 0 31 14 179 19 205 1 8 6
42 9 75 7 57 13 100 21 155 8 50 24 156 29 195 4 22 13 76 21 120 8 44 17 94
20 110 2 17 7 41 10 55 2 13 7 42 11 64 3 22 7 43 9 46 2 3 6 21 9 41 6 39 47
231 73 339 8 36 16 74 18 85 2 11 4 20 5 20 1 0 3 9 5 20 2 11 16 63 30 115
32 117 31 112 38 130 42 111 58 224 39 266 -54 119 -418 119 -518 1 -36 -43
-66 -124 -89 -242 -3 -11 -14 -54 -25 -95 -11 -41 -22 -84 -25 -95 -2 -11 -20
-92 -40 -180 -40 -173 -43 -185 -50 -230 -3 -16 -8 -37 -10 -45 -2 -8 -7 -31
-10 -50 -3 -19 -8 -42 -10 -50 -2 -8 -7 -28 -10 -45 -5 -29 -8 -48 -20 -105
-2 -14 -7 -41 -11 -60 -3 -19 -19 -114 -35 -210 -17 -96 -32 -191 -34 -210 -3
-19 -6 -44 -9 -55 -3 -17 -9 -60 -21 -165 -1 -8 -5 -44 -10 -80 -4 -36 -9 -76
-10 -90 -1 -14 -6 -63 -11 -110 -16 -171 -6 -236 45 -293 31 -35 83 -62 136
-73 22 -5 42 -9 45 -9 31 -7 96 -16 140 -20 30 -3 69 -7 85 -9 41 -6 298 -19
360 -19 75 1 285 13 309 18 12 2 44 7 71 10 40 4 130 21 220 40 55 11 241 70
295 92 179 75 372 191 505 303 109 93 255 263 334 390 103 166 198 403 236
588 3 12 7 32 9 45 23 113 28 142 31 175 2 20 7 69 11 107 14 137 8 435 -10
525 -1 8 -6 38 -11 65 -29 190 -121 409 -235 562 -57 76 -200 223 -217 223 -7
0 -13 4 -13 8 0 16 -139 104 -243 154 -58 29 -234 96 -267 103 -8 2 -33 8 -55
14 -22 5 -53 13 -70 15 -16 3 -39 8 -50 10 -11 2 -45 7 -75 11 -30 4 -66 10
-80 12 -27 4 -408 12 -412 8z"/>
<path d="M5659 7259 c-119 -18 -251 -119 -283 -216 -51 -152 9 -318 134 -371
72 -30 175 -41 270 -27 172 26 287 151 294 320 3 62 -13 144 -33 167 -6 7 -19
22 -29 33 -65 77 -211 116 -353 94z"/>
</g>
</svg>
